<mxfile host="65bd71144e">
    <diagram id="X1rKtd0r-AFqclWZNCV1" name="第 1 页">
        <mxGraphModel dx="541" dy="875" grid="0" gridSize="10" guides="1" tooltips="1" connect="1" arrows="1" fold="1" page="0" pageScale="1" pageWidth="827" pageHeight="1169" math="0" shadow="0">
            <root>
                <mxCell id="0"/>
                <mxCell id="1" parent="0"/>
                <mxCell id="3" value="&lt;font color=&quot;#ffff66&quot; style=&quot;font-size: 16px&quot;&gt;学生信息管理系统&lt;/font&gt;" style="rounded=1;whiteSpace=wrap;html=1;direction=south;" parent="1" vertex="1">
                    <mxGeometry x="48" y="121" width="60" height="218" as="geometry"/>
                </mxCell>
                <mxCell id="6" style="edgeStyle=none;html=1;exitX=0.1;exitY=0.5;exitDx=0;exitDy=0;exitPerimeter=0;entryX=0.5;entryY=0;entryDx=0;entryDy=0;fontColor=#FFFF66;" parent="1" source="4" target="3" edge="1">
                    <mxGeometry relative="1" as="geometry"/>
                </mxCell>
                <mxCell id="7" style="edgeStyle=none;html=1;exitX=0.5;exitY=0;exitDx=0;exitDy=0;fontColor=#FFFF66;" parent="1" source="4" edge="1">
                    <mxGeometry relative="1" as="geometry">
                        <mxPoint x="196.8925323486328" y="33" as="targetPoint"/>
                    </mxGeometry>
                </mxCell>
                <mxCell id="9" style="edgeStyle=none;html=1;exitX=0.5;exitY=1;exitDx=0;exitDy=0;fontColor=#FFFF66;" parent="1" source="4" edge="1">
                    <mxGeometry relative="1" as="geometry">
                        <mxPoint x="182.388936360677" y="427.66666666666674" as="targetPoint"/>
                    </mxGeometry>
                </mxCell>
                <mxCell id="23" style="edgeStyle=none;html=1;exitX=0.9;exitY=0.5;exitDx=0;exitDy=0;exitPerimeter=0;fontColor=#FFFF66;" parent="1" source="4" edge="1">
                    <mxGeometry relative="1" as="geometry">
                        <mxPoint x="205" y="230" as="targetPoint"/>
                    </mxGeometry>
                </mxCell>
                <mxCell id="4" value="" style="shape=curlyBracket;whiteSpace=wrap;html=1;rounded=1;fontColor=#FFFF66;" parent="1" vertex="1">
                    <mxGeometry x="126" y="33" width="20" height="394" as="geometry"/>
                </mxCell>
                <mxCell id="8" value="&lt;font style=&quot;font-size: 16px&quot;&gt;班级信息管理&lt;/font&gt;" style="rounded=1;whiteSpace=wrap;html=1;fontColor=#FFFF66;" parent="1" vertex="1">
                    <mxGeometry x="199" y="16" width="120" height="61" as="geometry"/>
                </mxCell>
                <mxCell id="10" value="&lt;font style=&quot;font-size: 16px&quot;&gt;学生信息管理&lt;/font&gt;" style="rounded=1;whiteSpace=wrap;html=1;fontColor=#FFFF66;" parent="1" vertex="1">
                    <mxGeometry x="183" y="406" width="120" height="43" as="geometry"/>
                </mxCell>
                <mxCell id="14" style="edgeStyle=none;html=1;exitX=0.5;exitY=0;exitDx=0;exitDy=0;fontColor=#FFFF66;" parent="1" source="13" edge="1">
                    <mxGeometry relative="1" as="geometry">
                        <mxPoint x="385" y="-40" as="targetPoint"/>
                    </mxGeometry>
                </mxCell>
                <mxCell id="15" style="edgeStyle=none;html=1;exitX=0.75;exitY=1;exitDx=0;exitDy=0;fontColor=#FFFF66;" parent="1" source="13" edge="1">
                    <mxGeometry relative="1" as="geometry">
                        <mxPoint x="389.172587076823" y="159.66666666666674" as="targetPoint"/>
                    </mxGeometry>
                </mxCell>
                <mxCell id="13" value="" style="shape=curlyBracket;whiteSpace=wrap;html=1;rounded=1;fontColor=#FFFF66;" parent="1" vertex="1">
                    <mxGeometry x="319" y="-40" width="20" height="200" as="geometry"/>
                </mxCell>
                <mxCell id="17" style="edgeStyle=none;html=1;exitX=0.5;exitY=0;exitDx=0;exitDy=0;fontColor=#FFFF66;" parent="1" source="16" edge="1">
                    <mxGeometry relative="1" as="geometry">
                        <mxPoint x="386.3509724934895" y="323.66666666666674" as="targetPoint"/>
                    </mxGeometry>
                </mxCell>
                <mxCell id="18" style="edgeStyle=none;html=1;exitX=0.75;exitY=1;exitDx=0;exitDy=0;fontColor=#FFFF66;" parent="1" source="16" edge="1">
                    <mxGeometry relative="1" as="geometry">
                        <mxPoint x="377.00885009765625" y="527.6666666666667" as="targetPoint"/>
                    </mxGeometry>
                </mxCell>
                <mxCell id="16" value="" style="shape=curlyBracket;whiteSpace=wrap;html=1;rounded=1;fontColor=#FFFF66;" parent="1" vertex="1">
                    <mxGeometry x="303" y="323" width="20" height="205" as="geometry"/>
                </mxCell>
                <mxCell id="19" value="&lt;font style=&quot;font-size: 16px&quot;&gt;班级信息添加&lt;/font&gt;" style="rounded=1;whiteSpace=wrap;html=1;fontColor=#FFFF66;" parent="1" vertex="1">
                    <mxGeometry x="387" y="-64" width="120" height="51" as="geometry"/>
                </mxCell>
                <mxCell id="20" value="&lt;font style=&quot;font-size: 16px&quot;&gt;班级信息维护&lt;/font&gt;" style="rounded=1;whiteSpace=wrap;html=1;fontColor=#FFFF66;" parent="1" vertex="1">
                    <mxGeometry x="392" y="131" width="120" height="55" as="geometry"/>
                </mxCell>
                <mxCell id="21" value="&lt;font style=&quot;font-size: 16px&quot;&gt;学生信息添加&lt;/font&gt;" style="rounded=1;whiteSpace=wrap;html=1;fontColor=#FFFF66;" parent="1" vertex="1">
                    <mxGeometry x="389" y="295" width="120" height="57" as="geometry"/>
                </mxCell>
                <mxCell id="22" value="&lt;font style=&quot;font-size: 16px&quot;&gt;学生信息维护&lt;/font&gt;" style="rounded=1;whiteSpace=wrap;html=1;fontColor=#FFFF66;" parent="1" vertex="1">
                    <mxGeometry x="379" y="501" width="120" height="45" as="geometry"/>
                </mxCell>
                <mxCell id="24" style="edgeStyle=none;html=1;exitX=0.9;exitY=0.5;exitDx=0;exitDy=0;exitPerimeter=0;entryX=0.1;entryY=0.5;entryDx=0;entryDy=0;entryPerimeter=0;fontColor=#FFFF66;" parent="1" source="4" target="4" edge="1">
                    <mxGeometry relative="1" as="geometry"/>
                </mxCell>
                <mxCell id="25" value="&lt;font style=&quot;font-size: 16px&quot;&gt;安全退出&lt;/font&gt;" style="rounded=1;whiteSpace=wrap;html=1;fontColor=#FFFF66;" parent="1" vertex="1">
                    <mxGeometry x="205" y="207" width="120" height="53" as="geometry"/>
                </mxCell>
                <mxCell id="29" style="edgeStyle=none;html=1;exitX=0.5;exitY=0;exitDx=0;exitDy=0;fontColor=#FFFF66;" parent="1" source="26" edge="1">
                    <mxGeometry relative="1" as="geometry">
                        <mxPoint x="568.7085789271764" y="-98.85714285714278" as="targetPoint"/>
                    </mxGeometry>
                </mxCell>
                <mxCell id="30" style="edgeStyle=none;html=1;exitX=0.75;exitY=1;exitDx=0;exitDy=0;fontColor=#FFFF66;" parent="1" source="26" edge="1">
                    <mxGeometry relative="1" as="geometry">
                        <mxPoint x="576.7286856515068" y="21.14285714285711" as="targetPoint"/>
                    </mxGeometry>
                </mxCell>
                <mxCell id="26" value="" style="shape=curlyBracket;whiteSpace=wrap;html=1;rounded=1;fontColor=#FFFF66;" parent="1" vertex="1">
                    <mxGeometry x="507" y="-98.5" width="20" height="120" as="geometry"/>
                </mxCell>
                <mxCell id="32" value="&lt;font style=&quot;font-size: 16px&quot;&gt;添加班级信息描述&lt;/font&gt;" style="rounded=1;whiteSpace=wrap;html=1;fontColor=#FFFF66;" parent="1" vertex="1">
                    <mxGeometry x="580" y="1" width="120" height="52" as="geometry"/>
                </mxCell>
                <mxCell id="33" value="&lt;font style=&quot;font-size: 16px&quot;&gt;添加班级信息名称&lt;/font&gt;" style="rounded=1;whiteSpace=wrap;html=1;fontColor=#FFFF66;" parent="1" vertex="1">
                    <mxGeometry x="571" y="-115" width="120" height="48" as="geometry"/>
                </mxCell>
                <mxCell id="35" style="edgeStyle=none;html=1;exitX=0.5;exitY=0;exitDx=0;exitDy=0;fontColor=#FFFF66;" parent="1" source="34" edge="1">
                    <mxGeometry relative="1" as="geometry">
                        <mxPoint x="577.7312316894531" y="102.57142857142867" as="targetPoint"/>
                    </mxGeometry>
                </mxCell>
                <mxCell id="36" style="edgeStyle=none;html=1;exitX=0.75;exitY=1;exitDx=0;exitDy=0;fontColor=#FFFF66;" parent="1" source="34" edge="1">
                    <mxGeometry relative="1" as="geometry">
                        <mxPoint x="575.7262268066406" y="222.57142857142867" as="targetPoint"/>
                    </mxGeometry>
                </mxCell>
                <mxCell id="38" style="edgeStyle=none;html=1;exitX=0.1;exitY=0.5;exitDx=0;exitDy=0;exitPerimeter=0;fontColor=#FFFF66;" parent="1" source="34" edge="1">
                    <mxGeometry relative="1" as="geometry">
                        <mxPoint x="783.245060511998" y="167.82836478097101" as="targetPoint"/>
                    </mxGeometry>
                </mxCell>
                <mxCell id="34" value="" style="shape=curlyBracket;whiteSpace=wrap;html=1;rounded=1;fontColor=#FFFF66;" parent="1" vertex="1">
                    <mxGeometry x="512" y="102" width="20" height="120" as="geometry"/>
                </mxCell>
                <mxCell id="37" value="&lt;font style=&quot;font-size: 16px&quot;&gt;查询&lt;/font&gt;" style="rounded=1;whiteSpace=wrap;html=1;fontColor=#FFFF66;" parent="1" vertex="1">
                    <mxGeometry x="580" y="80" width="120" height="50" as="geometry"/>
                </mxCell>
                <mxCell id="39" value="&lt;font style=&quot;font-size: 16px&quot;&gt;删除&lt;/font&gt;" style="rounded=1;whiteSpace=wrap;html=1;fontColor=#FFFF66;" parent="1" vertex="1">
                    <mxGeometry x="576" y="201" width="120" height="42" as="geometry"/>
                </mxCell>
                <mxCell id="40" value="&lt;font style=&quot;font-size: 16px&quot;&gt;修改&lt;/font&gt;" style="rounded=1;whiteSpace=wrap;html=1;fontColor=#FFFF66;" parent="1" vertex="1">
                    <mxGeometry x="785" y="155" width="120" height="44" as="geometry"/>
                </mxCell>
                <mxCell id="42" style="edgeStyle=none;html=1;exitX=0.5;exitY=0;exitDx=0;exitDy=0;fontColor=#FFFF66;" parent="1" source="41" edge="1">
                    <mxGeometry relative="1" as="geometry">
                        <mxPoint x="725.0997445242747" y="272.57142857142867" as="targetPoint"/>
                    </mxGeometry>
                </mxCell>
                <mxCell id="43" style="edgeStyle=none;html=1;exitX=0.75;exitY=1;exitDx=0;exitDy=0;fontColor=#FFFF66;" parent="1" source="41" edge="1">
                    <mxGeometry relative="1" as="geometry">
                        <mxPoint x="596.7789088657926" y="392.57142857142867" as="targetPoint"/>
                    </mxGeometry>
                </mxCell>
                <mxCell id="41" value="" style="shape=curlyBracket;whiteSpace=wrap;html=1;rounded=1;fontColor=#FFFF66;" parent="1" vertex="1">
                    <mxGeometry x="512" y="273" width="20" height="120" as="geometry"/>
                </mxCell>
                <mxCell id="45" value="&lt;font style=&quot;font-size: 15px&quot;&gt;添加学生信息（包括姓名、班级、院系、性别、家庭住址等）&lt;/font&gt;" style="rounded=1;whiteSpace=wrap;html=1;fontColor=#FFFF66;" parent="1" vertex="1">
                    <mxGeometry x="725" y="252" width="358" height="46" as="geometry"/>
                </mxCell>
                <mxCell id="46" value="&lt;font style=&quot;font-size: 16px&quot;&gt;重置&lt;/font&gt;" style="rounded=1;whiteSpace=wrap;html=1;fontColor=#FFFF66;" parent="1" vertex="1">
                    <mxGeometry x="601" y="367" width="104" height="50" as="geometry"/>
                </mxCell>
                <mxCell id="48" style="edgeStyle=none;html=1;exitX=0.5;exitY=0;exitDx=0;exitDy=0;fontColor=#FFFF66;" parent="1" source="47" edge="1">
                    <mxGeometry relative="1" as="geometry">
                        <mxPoint x="584.7487923758372" y="464" as="targetPoint"/>
                    </mxGeometry>
                </mxCell>
                <mxCell id="49" style="edgeStyle=none;html=1;exitX=0.5;exitY=1;exitDx=0;exitDy=0;fontColor=#FFFF66;" parent="1" source="47" edge="1">
                    <mxGeometry relative="1" as="geometry">
                        <mxPoint x="591.7507455008372" y="584" as="targetPoint"/>
                    </mxGeometry>
                </mxCell>
                <mxCell id="50" style="edgeStyle=none;html=1;exitX=0.9;exitY=0.5;exitDx=0;exitDy=0;exitPerimeter=0;fontColor=#FFFF66;" parent="1" source="47" edge="1">
                    <mxGeometry relative="1" as="geometry">
                        <mxPoint x="711.9977621023995" y="523.5" as="targetPoint"/>
                    </mxGeometry>
                </mxCell>
                <mxCell id="47" value="" style="shape=curlyBracket;whiteSpace=wrap;html=1;rounded=1;fontColor=#FFFF66;" parent="1" vertex="1">
                    <mxGeometry x="501" y="463.5" width="20" height="120" as="geometry"/>
                </mxCell>
                <mxCell id="52" style="edgeStyle=none;html=1;exitX=0.9;exitY=0.5;exitDx=0;exitDy=0;exitPerimeter=0;entryX=0.1;entryY=0.5;entryDx=0;entryDy=0;entryPerimeter=0;fontColor=#FFFF66;" parent="1" source="47" target="47" edge="1">
                    <mxGeometry relative="1" as="geometry"/>
                </mxCell>
                <mxCell id="53" value="&lt;font style=&quot;font-size: 16px&quot;&gt;查询&lt;/font&gt;" style="rounded=1;whiteSpace=wrap;html=1;fontColor=#FFFF66;" parent="1" vertex="1">
                    <mxGeometry x="585" y="443" width="120" height="47" as="geometry"/>
                </mxCell>
                <mxCell id="54" value="&lt;font style=&quot;font-size: 16px&quot;&gt;修改&lt;/font&gt;" style="rounded=1;whiteSpace=wrap;html=1;fontColor=#FFFF66;" parent="1" vertex="1">
                    <mxGeometry x="713" y="490" width="120" height="60" as="geometry"/>
                </mxCell>
                <mxCell id="55" value="&lt;font style=&quot;font-size: 16px&quot;&gt;删除&lt;/font&gt;" style="rounded=1;whiteSpace=wrap;html=1;fontColor=#FFFF66;" parent="1" vertex="1">
                    <mxGeometry x="593" y="556" width="120" height="60" as="geometry"/>
                </mxCell>
            </root>
        </mxGraphModel>
    </diagram>
    <diagram id="h5e-PedFrrhosIDywpTw" name="第 2 页">
        <mxGraphModel dx="1214" dy="1275" grid="0" gridSize="10" guides="1" tooltips="1" connect="1" arrows="1" fold="1" page="0" pageScale="1" pageWidth="827" pageHeight="1169" math="0" shadow="0">
            <root>
                <mxCell id="kQTjV_P9tIAeuZN6GO4j-0"/>
                <mxCell id="kQTjV_P9tIAeuZN6GO4j-1" parent="kQTjV_P9tIAeuZN6GO4j-0"/>
                <mxCell id="kQTjV_P9tIAeuZN6GO4j-25" style="edgeStyle=none;html=1;exitX=0;exitY=0.5;exitDx=0;exitDy=0;entryX=1;entryY=1;entryDx=0;entryDy=0;fontColor=#FFFF33;" parent="kQTjV_P9tIAeuZN6GO4j-1" source="kQTjV_P9tIAeuZN6GO4j-2" target="kQTjV_P9tIAeuZN6GO4j-16" edge="1">
                    <mxGeometry relative="1" as="geometry"/>
                </mxCell>
                <mxCell id="kQTjV_P9tIAeuZN6GO4j-26" style="edgeStyle=none;html=1;exitX=0.25;exitY=0;exitDx=0;exitDy=0;fontColor=#FFFF33;" parent="kQTjV_P9tIAeuZN6GO4j-1" source="kQTjV_P9tIAeuZN6GO4j-2" target="kQTjV_P9tIAeuZN6GO4j-18" edge="1">
                    <mxGeometry relative="1" as="geometry"/>
                </mxCell>
                <mxCell id="kQTjV_P9tIAeuZN6GO4j-27" style="edgeStyle=none;html=1;exitX=0.5;exitY=0;exitDx=0;exitDy=0;fontColor=#FFFF33;" parent="kQTjV_P9tIAeuZN6GO4j-1" source="kQTjV_P9tIAeuZN6GO4j-2" target="kQTjV_P9tIAeuZN6GO4j-19" edge="1">
                    <mxGeometry relative="1" as="geometry"/>
                </mxCell>
                <mxCell id="kQTjV_P9tIAeuZN6GO4j-2" value="&lt;font color=&quot;#ffff66&quot;&gt;班级&lt;/font&gt;" style="rounded=1;arcSize=10;whiteSpace=wrap;html=1;align=center;" parent="kQTjV_P9tIAeuZN6GO4j-1" vertex="1">
                    <mxGeometry x="-84" y="-367" width="100" height="40" as="geometry"/>
                </mxCell>
                <mxCell id="kQTjV_P9tIAeuZN6GO4j-36" style="edgeStyle=none;html=1;exitX=0;exitY=0;exitDx=0;exitDy=0;fontColor=#FFFF33;" parent="kQTjV_P9tIAeuZN6GO4j-1" source="kQTjV_P9tIAeuZN6GO4j-3" target="kQTjV_P9tIAeuZN6GO4j-30" edge="1">
                    <mxGeometry relative="1" as="geometry"/>
                </mxCell>
                <mxCell id="kQTjV_P9tIAeuZN6GO4j-37" style="edgeStyle=none;html=1;exitX=0.25;exitY=0;exitDx=0;exitDy=0;fontColor=#FFFF33;" parent="kQTjV_P9tIAeuZN6GO4j-1" source="kQTjV_P9tIAeuZN6GO4j-3" target="kQTjV_P9tIAeuZN6GO4j-29" edge="1">
                    <mxGeometry relative="1" as="geometry"/>
                </mxCell>
                <mxCell id="kQTjV_P9tIAeuZN6GO4j-38" style="edgeStyle=none;html=1;exitX=0.5;exitY=0;exitDx=0;exitDy=0;entryX=0;entryY=1;entryDx=0;entryDy=0;fontColor=#FFFF33;" parent="kQTjV_P9tIAeuZN6GO4j-1" source="kQTjV_P9tIAeuZN6GO4j-3" target="kQTjV_P9tIAeuZN6GO4j-28" edge="1">
                    <mxGeometry relative="1" as="geometry"/>
                </mxCell>
                <mxCell id="kQTjV_P9tIAeuZN6GO4j-39" style="edgeStyle=none;html=1;exitX=0.75;exitY=0;exitDx=0;exitDy=0;entryX=0;entryY=1;entryDx=0;entryDy=0;fontColor=#FFFF33;" parent="kQTjV_P9tIAeuZN6GO4j-1" source="kQTjV_P9tIAeuZN6GO4j-3" target="kQTjV_P9tIAeuZN6GO4j-32" edge="1">
                    <mxGeometry relative="1" as="geometry"/>
                </mxCell>
                <mxCell id="kQTjV_P9tIAeuZN6GO4j-40" style="edgeStyle=none;html=1;exitX=1;exitY=0;exitDx=0;exitDy=0;entryX=0;entryY=0.5;entryDx=0;entryDy=0;fontColor=#FFFF33;" parent="kQTjV_P9tIAeuZN6GO4j-1" source="kQTjV_P9tIAeuZN6GO4j-3" target="kQTjV_P9tIAeuZN6GO4j-35" edge="1">
                    <mxGeometry relative="1" as="geometry"/>
                </mxCell>
                <mxCell id="kQTjV_P9tIAeuZN6GO4j-41" style="edgeStyle=none;html=1;exitX=1;exitY=0.5;exitDx=0;exitDy=0;entryX=0;entryY=0;entryDx=0;entryDy=0;fontColor=#FFFF33;" parent="kQTjV_P9tIAeuZN6GO4j-1" source="kQTjV_P9tIAeuZN6GO4j-3" target="kQTjV_P9tIAeuZN6GO4j-33" edge="1">
                    <mxGeometry relative="1" as="geometry"/>
                </mxCell>
                <mxCell id="kQTjV_P9tIAeuZN6GO4j-42" style="edgeStyle=none;html=1;exitX=0.75;exitY=1;exitDx=0;exitDy=0;fontColor=#FFFF33;" parent="kQTjV_P9tIAeuZN6GO4j-1" source="kQTjV_P9tIAeuZN6GO4j-3" target="kQTjV_P9tIAeuZN6GO4j-34" edge="1">
                    <mxGeometry relative="1" as="geometry"/>
                </mxCell>
                <mxCell id="kQTjV_P9tIAeuZN6GO4j-3" value="&lt;font color=&quot;#ffff66&quot;&gt;学生&lt;/font&gt;" style="rounded=1;arcSize=10;whiteSpace=wrap;html=1;align=center;" parent="kQTjV_P9tIAeuZN6GO4j-1" vertex="1">
                    <mxGeometry x="398" y="-363" width="100" height="40" as="geometry"/>
                </mxCell>
                <mxCell id="kQTjV_P9tIAeuZN6GO4j-46" style="edgeStyle=none;html=1;exitX=0;exitY=1;exitDx=0;exitDy=0;entryX=0.732;entryY=0.057;entryDx=0;entryDy=0;entryPerimeter=0;fontColor=#FFFF33;" parent="kQTjV_P9tIAeuZN6GO4j-1" source="kQTjV_P9tIAeuZN6GO4j-4" target="kQTjV_P9tIAeuZN6GO4j-45" edge="1">
                    <mxGeometry relative="1" as="geometry"/>
                </mxCell>
                <mxCell id="kQTjV_P9tIAeuZN6GO4j-47" style="edgeStyle=none;html=1;exitX=0.5;exitY=1;exitDx=0;exitDy=0;fontColor=#FFFF33;" parent="kQTjV_P9tIAeuZN6GO4j-1" source="kQTjV_P9tIAeuZN6GO4j-4" target="kQTjV_P9tIAeuZN6GO4j-43" edge="1">
                    <mxGeometry relative="1" as="geometry"/>
                </mxCell>
                <mxCell id="kQTjV_P9tIAeuZN6GO4j-48" style="edgeStyle=none;html=1;exitX=1;exitY=1;exitDx=0;exitDy=0;entryX=0.247;entryY=0.074;entryDx=0;entryDy=0;entryPerimeter=0;fontColor=#FFFF33;" parent="kQTjV_P9tIAeuZN6GO4j-1" source="kQTjV_P9tIAeuZN6GO4j-4" target="kQTjV_P9tIAeuZN6GO4j-44" edge="1">
                    <mxGeometry relative="1" as="geometry"/>
                </mxCell>
                <mxCell id="kQTjV_P9tIAeuZN6GO4j-4" value="&lt;font color=&quot;#ffff33&quot;&gt;用户&lt;/font&gt;" style="rounded=1;arcSize=10;whiteSpace=wrap;html=1;align=center;" parent="kQTjV_P9tIAeuZN6GO4j-1" vertex="1">
                    <mxGeometry x="149" y="-55" width="100" height="40" as="geometry"/>
                </mxCell>
                <mxCell id="kQTjV_P9tIAeuZN6GO4j-5" value="" style="endArrow=none;html=1;rounded=0;" parent="kQTjV_P9tIAeuZN6GO4j-1" target="kQTjV_P9tIAeuZN6GO4j-6" edge="1">
                    <mxGeometry relative="1" as="geometry">
                        <mxPoint x="16" y="-347.5" as="sourcePoint"/>
                        <mxPoint x="122" y="-347" as="targetPoint"/>
                    </mxGeometry>
                </mxCell>
                <mxCell id="kQTjV_P9tIAeuZN6GO4j-6" value="&lt;font color=&quot;#ffff66&quot;&gt;属于&lt;/font&gt;" style="shape=rhombus;perimeter=rhombusPerimeter;whiteSpace=wrap;html=1;align=center;" parent="kQTjV_P9tIAeuZN6GO4j-1" vertex="1">
                    <mxGeometry x="131" y="-377" width="122" height="60" as="geometry"/>
                </mxCell>
                <mxCell id="kQTjV_P9tIAeuZN6GO4j-9" value="" style="endArrow=none;html=1;rounded=0;" parent="kQTjV_P9tIAeuZN6GO4j-1" edge="1">
                    <mxGeometry relative="1" as="geometry">
                        <mxPoint x="251" y="-347.5" as="sourcePoint"/>
                        <mxPoint x="396" y="-347" as="targetPoint"/>
                    </mxGeometry>
                </mxCell>
                <mxCell id="kQTjV_P9tIAeuZN6GO4j-10" value="" style="endArrow=none;html=1;rounded=0;startArrow=none;" parent="kQTjV_P9tIAeuZN6GO4j-1" source="kQTjV_P9tIAeuZN6GO4j-11" edge="1">
                    <mxGeometry relative="1" as="geometry">
                        <mxPoint x="-57" y="-327" as="sourcePoint"/>
                        <mxPoint x="194" y="-56" as="targetPoint"/>
                        <Array as="points">
                            <mxPoint x="114" y="-157"/>
                        </Array>
                    </mxGeometry>
                </mxCell>
                <mxCell id="kQTjV_P9tIAeuZN6GO4j-11" value="&lt;font color=&quot;#ffff66&quot;&gt;班级维护&lt;/font&gt;" style="shape=rhombus;perimeter=rhombusPerimeter;whiteSpace=wrap;html=1;align=center;rotation=44;" parent="kQTjV_P9tIAeuZN6GO4j-1" vertex="1">
                    <mxGeometry x="-2" y="-243" width="120" height="60" as="geometry"/>
                </mxCell>
                <mxCell id="kQTjV_P9tIAeuZN6GO4j-12" value="" style="endArrow=none;html=1;rounded=0;" parent="kQTjV_P9tIAeuZN6GO4j-1" target="kQTjV_P9tIAeuZN6GO4j-11" edge="1">
                    <mxGeometry relative="1" as="geometry">
                        <mxPoint x="-57" y="-327" as="sourcePoint"/>
                        <mxPoint x="112" y="-158" as="targetPoint"/>
                    </mxGeometry>
                </mxCell>
                <mxCell id="kQTjV_P9tIAeuZN6GO4j-13" value="" style="endArrow=none;html=1;rounded=0;startArrow=none;" parent="kQTjV_P9tIAeuZN6GO4j-1" source="kQTjV_P9tIAeuZN6GO4j-14" edge="1">
                    <mxGeometry relative="1" as="geometry">
                        <mxPoint x="207" y="-53" as="sourcePoint"/>
                        <mxPoint x="436" y="-323" as="targetPoint"/>
                    </mxGeometry>
                </mxCell>
                <mxCell id="kQTjV_P9tIAeuZN6GO4j-14" value="&lt;font color=&quot;#ffff66&quot;&gt;学生维护&lt;/font&gt;" style="shape=rhombus;perimeter=rhombusPerimeter;whiteSpace=wrap;html=1;align=center;rotation=311;" parent="kQTjV_P9tIAeuZN6GO4j-1" vertex="1">
                    <mxGeometry x="278" y="-238" width="120" height="60" as="geometry"/>
                </mxCell>
                <mxCell id="kQTjV_P9tIAeuZN6GO4j-15" value="" style="endArrow=none;html=1;rounded=0;" parent="kQTjV_P9tIAeuZN6GO4j-1" target="kQTjV_P9tIAeuZN6GO4j-14" edge="1">
                    <mxGeometry relative="1" as="geometry">
                        <mxPoint x="207" y="-53" as="sourcePoint"/>
                        <mxPoint x="436" y="-323" as="targetPoint"/>
                    </mxGeometry>
                </mxCell>
                <mxCell id="kQTjV_P9tIAeuZN6GO4j-16" value="班级编号" style="ellipse;whiteSpace=wrap;html=1;align=center;fontStyle=4;fontColor=#FFFF33;" parent="kQTjV_P9tIAeuZN6GO4j-1" vertex="1">
                    <mxGeometry x="-304" y="-481" width="100" height="40" as="geometry"/>
                </mxCell>
                <mxCell id="kQTjV_P9tIAeuZN6GO4j-18" value="班级名称" style="ellipse;whiteSpace=wrap;html=1;align=center;fontColor=#FFFF33;" parent="kQTjV_P9tIAeuZN6GO4j-1" vertex="1">
                    <mxGeometry x="-148" y="-496" width="100" height="40" as="geometry"/>
                </mxCell>
                <mxCell id="kQTjV_P9tIAeuZN6GO4j-19" value="班级描述" style="ellipse;whiteSpace=wrap;html=1;align=center;fontColor=#FFFF33;" parent="kQTjV_P9tIAeuZN6GO4j-1" vertex="1">
                    <mxGeometry x="2" y="-474" width="100" height="40" as="geometry"/>
                </mxCell>
                <mxCell id="kQTjV_P9tIAeuZN6GO4j-28" value="性别" style="ellipse;whiteSpace=wrap;html=1;align=center;fontColor=#FFFF33;" parent="kQTjV_P9tIAeuZN6GO4j-1" vertex="1">
                    <mxGeometry x="532" y="-518" width="100" height="40" as="geometry"/>
                </mxCell>
                <mxCell id="kQTjV_P9tIAeuZN6GO4j-29" value="姓名" style="ellipse;whiteSpace=wrap;html=1;align=center;fontColor=#FFFF33;" parent="kQTjV_P9tIAeuZN6GO4j-1" vertex="1">
                    <mxGeometry x="391" y="-518" width="100" height="40" as="geometry"/>
                </mxCell>
                <mxCell id="kQTjV_P9tIAeuZN6GO4j-30" value="学生学号" style="ellipse;whiteSpace=wrap;html=1;align=center;fontStyle=4;fontColor=#FFFF33;" parent="kQTjV_P9tIAeuZN6GO4j-1" vertex="1">
                    <mxGeometry x="272" y="-496" width="100" height="40" as="geometry"/>
                </mxCell>
                <mxCell id="kQTjV_P9tIAeuZN6GO4j-32" value="&lt;span style=&quot;border-bottom: 1px dotted&quot;&gt;班级编号&lt;/span&gt;" style="ellipse;whiteSpace=wrap;html=1;align=center;fontColor=#FFFF33;" parent="kQTjV_P9tIAeuZN6GO4j-1" vertex="1">
                    <mxGeometry x="656" y="-485" width="100" height="40" as="geometry"/>
                </mxCell>
                <mxCell id="kQTjV_P9tIAeuZN6GO4j-33" value="家庭住址" style="ellipse;whiteSpace=wrap;html=1;align=center;fontColor=#FFFF33;" parent="kQTjV_P9tIAeuZN6GO4j-1" vertex="1">
                    <mxGeometry x="647" y="-303" width="100" height="40" as="geometry"/>
                </mxCell>
                <mxCell id="kQTjV_P9tIAeuZN6GO4j-34" value="院系" style="ellipse;whiteSpace=wrap;html=1;align=center;fontColor=#FFFF33;" parent="kQTjV_P9tIAeuZN6GO4j-1" vertex="1">
                    <mxGeometry x="489" y="-271" width="100" height="40" as="geometry"/>
                </mxCell>
                <mxCell id="kQTjV_P9tIAeuZN6GO4j-35" value="电话" style="ellipse;whiteSpace=wrap;html=1;align=center;fontColor=#FFFF33;" parent="kQTjV_P9tIAeuZN6GO4j-1" vertex="1">
                    <mxGeometry x="661" y="-390" width="100" height="40" as="geometry"/>
                </mxCell>
                <mxCell id="kQTjV_P9tIAeuZN6GO4j-43" value="用户名" style="ellipse;whiteSpace=wrap;html=1;align=center;fontColor=#FFFF33;" parent="kQTjV_P9tIAeuZN6GO4j-1" vertex="1">
                    <mxGeometry x="118" y="48" width="100" height="40" as="geometry"/>
                </mxCell>
                <mxCell id="kQTjV_P9tIAeuZN6GO4j-44" value="用户密码" style="ellipse;whiteSpace=wrap;html=1;align=center;fontColor=#FFFF33;" parent="kQTjV_P9tIAeuZN6GO4j-1" vertex="1">
                    <mxGeometry x="296" y="46" width="100" height="40" as="geometry"/>
                </mxCell>
                <mxCell id="kQTjV_P9tIAeuZN6GO4j-45" value="账号编号数" style="ellipse;whiteSpace=wrap;html=1;align=center;fontStyle=4;fontColor=#FFFF33;" parent="kQTjV_P9tIAeuZN6GO4j-1" vertex="1">
                    <mxGeometry x="-22" y="57" width="100" height="40" as="geometry"/>
                </mxCell>
            </root>
        </mxGraphModel>
    </diagram>
    <diagram id="ztqtnTiNOS0AnqJzE6tR" name="第 3 页">
        <mxGraphModel dx="1614" dy="1275" grid="0" gridSize="10" guides="1" tooltips="1" connect="1" arrows="1" fold="1" page="0" pageScale="1" pageWidth="827" pageHeight="1169" math="0" shadow="0">
            <root>
                <mxCell id="ghHjypLZmhWNhlT26lDi-0"/>
                <mxCell id="ghHjypLZmhWNhlT26lDi-1" parent="ghHjypLZmhWNhlT26lDi-0"/>
                <mxCell id="ghHjypLZmhWNhlT26lDi-2" value="&lt;font style=&quot;font-size: 80px&quot; color=&quot;#ffff33&quot;&gt;初始化init()&lt;/font&gt;" style="ellipse;whiteSpace=wrap;html=1;strokeColor=#FFFF66;strokeWidth=10;" parent="ghHjypLZmhWNhlT26lDi-1" vertex="1">
                    <mxGeometry x="130" y="-585" width="594" height="257" as="geometry"/>
                </mxCell>
                <mxCell id="Q9jBZw0fYmnptR7sDbcT-0" value="显示数据showdata()" style="rounded=0;whiteSpace=wrap;html=1;fontSize=80;fontColor=#FFFF33;strokeColor=#FFFF66;strokeWidth=10;" parent="ghHjypLZmhWNhlT26lDi-1" vertex="1">
                    <mxGeometry x="23" y="-151" width="808" height="243" as="geometry"/>
                </mxCell>
                <mxCell id="Q9jBZw0fYmnptR7sDbcT-1" value="安全性检查safe()" style="rhombus;whiteSpace=wrap;html=1;fontSize=80;fontColor=#FFFF33;strokeColor=#FFFF66;strokeWidth=10;" parent="ghHjypLZmhWNhlT26lDi-1" vertex="1">
                    <mxGeometry x="-75" y="308" width="1032" height="336" as="geometry"/>
                </mxCell>
                <mxCell id="Q9jBZw0fYmnptR7sDbcT-2" value="不安全" style="rounded=0;whiteSpace=wrap;html=1;fontSize=80;fontColor=#FFFF33;strokeColor=#FFFF66;strokeWidth=10;" parent="ghHjypLZmhWNhlT26lDi-1" vertex="1">
                    <mxGeometry x="1312" y="374" width="486" height="201" as="geometry"/>
                </mxCell>
                <mxCell id="Q9jBZw0fYmnptR7sDbcT-3" value="输出安全序列" style="rounded=0;whiteSpace=wrap;html=1;fontSize=80;fontColor=#FFFF33;strokeColor=#FFFF66;strokeWidth=10;" parent="ghHjypLZmhWNhlT26lDi-1" vertex="1">
                    <mxGeometry x="78" y="907" width="709" height="248" as="geometry"/>
                </mxCell>
                <mxCell id="Q9jBZw0fYmnptR7sDbcT-4" value="提出request[j]" style="rounded=0;whiteSpace=wrap;html=1;fontSize=80;fontColor=#FFFF33;strokeColor=#FFFF66;strokeWidth=10;" parent="ghHjypLZmhWNhlT26lDi-1" vertex="1">
                    <mxGeometry x="-25" y="1449" width="946" height="285" as="geometry"/>
                </mxCell>
                <mxCell id="Q9jBZw0fYmnptR7sDbcT-5" value="尝试分配" style="rounded=0;whiteSpace=wrap;html=1;fontSize=80;fontColor=#FFFF33;strokeColor=#FFFF66;strokeWidth=10;" parent="ghHjypLZmhWNhlT26lDi-1" vertex="1">
                    <mxGeometry x="156" y="2073" width="650" height="200" as="geometry"/>
                </mxCell>
                <mxCell id="Q9jBZw0fYmnptR7sDbcT-6" value="不分配" style="rounded=0;whiteSpace=wrap;html=1;fontSize=80;fontColor=#FFFF33;strokeColor=#FFFF66;strokeWidth=10;" parent="ghHjypLZmhWNhlT26lDi-1" vertex="1">
                    <mxGeometry x="1378" y="1502" width="485" height="204" as="geometry"/>
                </mxCell>
                <mxCell id="Q9jBZw0fYmnptR7sDbcT-9" value="" style="line;strokeWidth=10;direction=south;html=1;fontSize=80;fontColor=#FFFF33;strokeColor=#FFFF33;" parent="ghHjypLZmhWNhlT26lDi-1" vertex="1">
                    <mxGeometry x="-144" y="-321" width="1163" height="160" as="geometry"/>
                </mxCell>
                <mxCell id="Q9jBZw0fYmnptR7sDbcT-10" value="" style="line;strokeWidth=10;direction=south;html=1;fontSize=80;fontColor=#FFFF33;strokeColor=#FFFF33;" parent="ghHjypLZmhWNhlT26lDi-1" vertex="1">
                    <mxGeometry x="-115.5" y="92" width="1113" height="225" as="geometry"/>
                </mxCell>
                <mxCell id="Q9jBZw0fYmnptR7sDbcT-11" value="" style="line;strokeWidth=10;html=1;fontSize=80;fontColor=#FFFF33;strokeColor=#FFFF33;" parent="ghHjypLZmhWNhlT26lDi-1" vertex="1">
                    <mxGeometry x="959" y="336.5" width="348" height="279" as="geometry"/>
                </mxCell>
                <mxCell id="Q9jBZw0fYmnptR7sDbcT-12" value="不存在" style="text;html=1;align=center;verticalAlign=middle;resizable=0;points=[];autosize=1;strokeColor=none;fillColor=none;fontSize=80;fontColor=#FFFF33;" parent="ghHjypLZmhWNhlT26lDi-1" vertex="1">
                    <mxGeometry x="1001" y="334" width="250" height="100" as="geometry"/>
                </mxCell>
                <mxCell id="Q9jBZw0fYmnptR7sDbcT-13" value="" style="line;strokeWidth=10;direction=south;html=1;fontSize=80;fontColor=#FFFF33;strokeColor=#FFFF33;" parent="ghHjypLZmhWNhlT26lDi-1" vertex="1">
                    <mxGeometry x="432.5" y="647" width="10" height="258" as="geometry"/>
                </mxCell>
                <mxCell id="Q9jBZw0fYmnptR7sDbcT-14" value="" style="line;strokeWidth=10;direction=south;html=1;fontSize=80;fontColor=#FFFF33;strokeColor=#FFFF33;" parent="ghHjypLZmhWNhlT26lDi-1" vertex="1">
                    <mxGeometry x="436" y="1160" width="10" height="286" as="geometry"/>
                </mxCell>
                <mxCell id="Q9jBZw0fYmnptR7sDbcT-15" value="" style="line;strokeWidth=10;html=1;fontSize=80;fontColor=#FFFF33;strokeColor=#FFFF33;" parent="ghHjypLZmhWNhlT26lDi-1" vertex="1">
                    <mxGeometry x="921" y="1590" width="455" height="10" as="geometry"/>
                </mxCell>
                <mxCell id="Q9jBZw0fYmnptR7sDbcT-16" value="" style="line;strokeWidth=10;direction=south;html=1;fontSize=80;fontColor=#FFFF33;strokeColor=#FFFF33;" parent="ghHjypLZmhWNhlT26lDi-1" vertex="1">
                    <mxGeometry x="436" y="1731" width="10" height="342" as="geometry"/>
                </mxCell>
                <mxCell id="Q9jBZw0fYmnptR7sDbcT-17" value="存在安全序列" style="text;html=1;align=center;verticalAlign=middle;resizable=0;points=[];autosize=1;strokeColor=none;fillColor=none;fontSize=80;fontColor=#FFFF33;" parent="ghHjypLZmhWNhlT26lDi-1" vertex="1">
                    <mxGeometry x="485" y="711" width="490" height="100" as="geometry"/>
                </mxCell>
                <mxCell id="Q9jBZw0fYmnptR7sDbcT-18" value="条件不满足" style="text;html=1;align=center;verticalAlign=middle;resizable=0;points=[];autosize=1;strokeColor=none;fillColor=none;fontSize=80;fontColor=#FFFF33;" parent="ghHjypLZmhWNhlT26lDi-1" vertex="1">
                    <mxGeometry x="954" y="1688" width="410" height="100" as="geometry"/>
                </mxCell>
                <mxCell id="Q9jBZw0fYmnptR7sDbcT-19" value="条件满足" style="text;html=1;align=center;verticalAlign=middle;resizable=0;points=[];autosize=1;strokeColor=none;fillColor=none;fontSize=80;fontColor=#FFFF33;" parent="ghHjypLZmhWNhlT26lDi-1" vertex="1">
                    <mxGeometry x="501" y="1899" width="330" height="100" as="geometry"/>
                </mxCell>
                <mxCell id="Q9jBZw0fYmnptR7sDbcT-20" value="" style="line;strokeWidth=10;html=1;fontSize=80;fontColor=#FFFF33;strokeColor=#FFFF33;" parent="ghHjypLZmhWNhlT26lDi-1" vertex="1">
                    <mxGeometry x="-669" y="2181" width="822" height="10" as="geometry"/>
                </mxCell>
                <mxCell id="Q9jBZw0fYmnptR7sDbcT-21" value="" style="line;strokeWidth=10;direction=south;html=1;fontSize=80;fontColor=#FFFF33;strokeColor=#FFFF33;" parent="ghHjypLZmhWNhlT26lDi-1" vertex="1">
                    <mxGeometry x="-669" y="481" width="10" height="1707" as="geometry"/>
                </mxCell>
                <mxCell id="Q9jBZw0fYmnptR7sDbcT-22" value="" style="line;strokeWidth=10;html=1;fontSize=80;fontColor=#FFFF33;strokeColor=#FFFF33;" parent="ghHjypLZmhWNhlT26lDi-1" vertex="1">
                    <mxGeometry x="-674" y="-6" width="587" height="978" as="geometry"/>
                </mxCell>
            </root>
        </mxGraphModel>
    </diagram>
    <diagram id="Q-Z08sQ0TTFYCC976Wdz" name="第 4 页">
        <mxGraphModel dx="1614" dy="875" grid="0" gridSize="10" guides="1" tooltips="1" connect="1" arrows="1" fold="1" page="0" pageScale="1" pageWidth="827" pageHeight="1169" math="0" shadow="0">
            <root>
                <mxCell id="TNTDtUH9Z9aiBAnjI_58-0"/>
                <mxCell id="TNTDtUH9Z9aiBAnjI_58-1" parent="TNTDtUH9Z9aiBAnjI_58-0"/>
                <mxCell id="TNTDtUH9Z9aiBAnjI_58-2" value="&lt;font style=&quot;font-size: 40px&quot; color=&quot;#ffff33&quot;&gt;开始&lt;/font&gt;" style="rounded=1;whiteSpace=wrap;html=1;strokeWidth=10;strokeColor=#FFFF33;" parent="TNTDtUH9Z9aiBAnjI_58-1" vertex="1">
                    <mxGeometry x="289" y="-198" width="176" height="85" as="geometry"/>
                </mxCell>
                <mxCell id="TNTDtUH9Z9aiBAnjI_58-3" value="访问队列是否为空" style="rhombus;whiteSpace=wrap;html=1;fontSize=40;fontColor=#FFFF33;strokeColor=#FFFF33;strokeWidth=10;" parent="TNTDtUH9Z9aiBAnjI_58-1" vertex="1">
                    <mxGeometry x="82" y="-30" width="601" height="223" as="geometry"/>
                </mxCell>
                <mxCell id="TNTDtUH9Z9aiBAnjI_58-4" value="取队头页面" style="rounded=0;whiteSpace=wrap;html=1;fontSize=40;fontColor=#FFFF33;strokeColor=#FFFF33;strokeWidth=10;" parent="TNTDtUH9Z9aiBAnjI_58-1" vertex="1">
                    <mxGeometry x="217" y="293" width="336" height="123" as="geometry"/>
                </mxCell>
                <mxCell id="TNTDtUH9Z9aiBAnjI_58-5" value="内存块中是否存在该队头页面" style="rhombus;whiteSpace=wrap;html=1;fontSize=40;fontColor=#FFFF33;strokeColor=#FFFF33;strokeWidth=10;" parent="TNTDtUH9Z9aiBAnjI_58-1" vertex="1">
                    <mxGeometry x="35" y="529" width="684" height="257" as="geometry"/>
                </mxCell>
                <mxCell id="TNTDtUH9Z9aiBAnjI_58-6" value="内存是否已满" style="rhombus;whiteSpace=wrap;html=1;fontSize=40;fontColor=#FFFF33;strokeColor=#FFFF33;strokeWidth=10;" parent="TNTDtUH9Z9aiBAnjI_58-1" vertex="1">
                    <mxGeometry x="35.5" y="899" width="689" height="216" as="geometry"/>
                </mxCell>
                <mxCell id="TNTDtUH9Z9aiBAnjI_58-7" value="置换内存块队列的队头页面，队头指针队尾指针循环加1，缺页数加1" style="rounded=0;whiteSpace=wrap;html=1;fontSize=40;fontColor=#FFFF33;strokeColor=#FFFF33;strokeWidth=10;" parent="TNTDtUH9Z9aiBAnjI_58-1" vertex="1">
                    <mxGeometry x="-4" y="1195" width="814" height="236" as="geometry"/>
                </mxCell>
                <mxCell id="TNTDtUH9Z9aiBAnjI_58-8" value="更新内存块，显示内存块当前情况" style="rounded=0;whiteSpace=wrap;html=1;fontSize=40;fontColor=#FFFF33;strokeColor=#FFFF33;strokeWidth=10;" parent="TNTDtUH9Z9aiBAnjI_58-1" vertex="1">
                    <mxGeometry x="100" y="1588" width="638" height="160" as="geometry"/>
                </mxCell>
                <mxCell id="TNTDtUH9Z9aiBAnjI_58-9" value="计算缺页率" style="rounded=0;whiteSpace=wrap;html=1;fontSize=40;fontColor=#FFFF33;strokeColor=#FFFF33;strokeWidth=10;" parent="TNTDtUH9Z9aiBAnjI_58-1" vertex="1">
                    <mxGeometry x="193" y="1983" width="415" height="134" as="geometry"/>
                </mxCell>
                <mxCell id="TNTDtUH9Z9aiBAnjI_58-10" value="结束" style="rounded=1;whiteSpace=wrap;html=1;fontSize=40;fontColor=#FFFF33;strokeColor=#FFFF33;strokeWidth=10;" parent="TNTDtUH9Z9aiBAnjI_58-1" vertex="1">
                    <mxGeometry x="276" y="2299" width="213" height="94" as="geometry"/>
                </mxCell>
                <mxCell id="TNTDtUH9Z9aiBAnjI_58-11" value="" style="line;strokeWidth=10;direction=south;html=1;perimeter=backbonePerimeter;points=[];outlineConnect=0;fontSize=40;fontColor=#FFFF33;strokeColor=#FFFF33;" parent="TNTDtUH9Z9aiBAnjI_58-1" vertex="1">
                    <mxGeometry x="295" y="-113" width="170" height="74" as="geometry"/>
                </mxCell>
                <mxCell id="TNTDtUH9Z9aiBAnjI_58-12" value="" style="line;strokeWidth=10;direction=south;html=1;fontSize=40;fontColor=#FFFF33;strokeColor=#FFFF33;" parent="TNTDtUH9Z9aiBAnjI_58-1" vertex="1">
                    <mxGeometry x="376" y="198" width="2" height="101" as="geometry"/>
                </mxCell>
                <mxCell id="TNTDtUH9Z9aiBAnjI_58-13" value="" style="line;strokeWidth=10;direction=south;html=1;fontSize=40;fontColor=#FFFF33;strokeColor=#FFFF33;" parent="TNTDtUH9Z9aiBAnjI_58-1" vertex="1">
                    <mxGeometry x="381.5" y="416" width="2" height="109" as="geometry"/>
                </mxCell>
                <mxCell id="TNTDtUH9Z9aiBAnjI_58-14" value="" style="line;strokeWidth=10;direction=south;html=1;fontSize=40;fontColor=#FFFF33;strokeColor=#FFFF33;" parent="TNTDtUH9Z9aiBAnjI_58-1" vertex="1">
                    <mxGeometry x="372" y="780" width="10" height="113" as="geometry"/>
                </mxCell>
                <mxCell id="TNTDtUH9Z9aiBAnjI_58-15" value="" style="line;strokeWidth=10;direction=south;html=1;fontSize=40;fontColor=#FFFF33;strokeColor=#FFFF33;" parent="TNTDtUH9Z9aiBAnjI_58-1" vertex="1">
                    <mxGeometry x="354" y="1110" width="57" height="98" as="geometry"/>
                </mxCell>
                <mxCell id="TNTDtUH9Z9aiBAnjI_58-16" value="" style="line;strokeWidth=10;direction=south;html=1;fontSize=40;fontColor=#FFFF33;strokeColor=#FFFF33;" parent="TNTDtUH9Z9aiBAnjI_58-1" vertex="1">
                    <mxGeometry x="380" y="1426" width="10" height="160" as="geometry"/>
                </mxCell>
                <mxCell id="TNTDtUH9Z9aiBAnjI_58-17" value="" style="line;strokeWidth=10;direction=south;html=1;fontSize=40;fontColor=#FFFF33;strokeColor=#FFFF33;" parent="TNTDtUH9Z9aiBAnjI_58-1" vertex="1">
                    <mxGeometry x="383.5" y="1745" width="10" height="97" as="geometry"/>
                </mxCell>
                <mxCell id="TNTDtUH9Z9aiBAnjI_58-18" value="" style="line;strokeWidth=10;direction=south;html=1;fontSize=40;fontColor=#FFFF33;strokeColor=#FFFF33;" parent="TNTDtUH9Z9aiBAnjI_58-1" vertex="1">
                    <mxGeometry x="383.5" y="2124" width="10" height="172" as="geometry"/>
                </mxCell>
                <mxCell id="TNTDtUH9Z9aiBAnjI_58-19" value="" style="line;strokeWidth=10;html=1;fontSize=40;fontColor=#FFFF33;strokeColor=#FFFF33;" parent="TNTDtUH9Z9aiBAnjI_58-1" vertex="1">
                    <mxGeometry x="390" y="1832" width="936" height="10" as="geometry"/>
                </mxCell>
                <mxCell id="TNTDtUH9Z9aiBAnjI_58-20" value="" style="line;strokeWidth=10;direction=south;html=1;fontSize=40;fontColor=#FFFF33;strokeColor=#FFFF33;" parent="TNTDtUH9Z9aiBAnjI_58-1" vertex="1">
                    <mxGeometry x="1308" y="77" width="10" height="1763" as="geometry"/>
                </mxCell>
                <mxCell id="TNTDtUH9Z9aiBAnjI_58-21" value="" style="line;strokeWidth=10;html=1;fontSize=40;fontColor=#FFFF33;strokeColor=#FFFF33;" parent="TNTDtUH9Z9aiBAnjI_58-1" vertex="1">
                    <mxGeometry x="691" y="77" width="628" height="10" as="geometry"/>
                </mxCell>
                <mxCell id="TNTDtUH9Z9aiBAnjI_58-22" value="" style="line;strokeWidth=10;html=1;fontSize=40;fontColor=#FFFF33;strokeColor=#FFFF33;" parent="TNTDtUH9Z9aiBAnjI_58-1" vertex="1">
                    <mxGeometry x="-268" y="647" width="293" height="10" as="geometry"/>
                </mxCell>
                <mxCell id="TNTDtUH9Z9aiBAnjI_58-23" value="" style="line;strokeWidth=10;direction=south;html=1;fontSize=40;fontColor=#FFFF33;strokeColor=#FFFF33;" parent="TNTDtUH9Z9aiBAnjI_58-1" vertex="1">
                    <mxGeometry x="-271" y="654" width="10" height="846" as="geometry"/>
                </mxCell>
                <mxCell id="TNTDtUH9Z9aiBAnjI_58-24" value="" style="line;strokeWidth=10;html=1;fontSize=40;fontColor=#FFFF33;strokeColor=#FFFF33;" parent="TNTDtUH9Z9aiBAnjI_58-1" vertex="1">
                    <mxGeometry x="-279" y="1493" width="663" height="10" as="geometry"/>
                </mxCell>
                <mxCell id="TNTDtUH9Z9aiBAnjI_58-25" value="" style="line;strokeWidth=10;html=1;fontSize=40;fontColor=#FFFF33;strokeColor=#FFFF33;" parent="TNTDtUH9Z9aiBAnjI_58-1" vertex="1">
                    <mxGeometry x="-264" y="1002" width="300" height="10" as="geometry"/>
                </mxCell>
                <mxCell id="TNTDtUH9Z9aiBAnjI_58-26" value="&lt;font style=&quot;font-size: 50px&quot;&gt;Y&lt;/font&gt;" style="text;html=1;align=center;verticalAlign=middle;resizable=0;points=[];autosize=1;strokeColor=none;fillColor=none;fontSize=40;fontColor=#FFFF33;" parent="TNTDtUH9Z9aiBAnjI_58-1" vertex="1">
                    <mxGeometry x="-171" y="723" width="43" height="56" as="geometry"/>
                </mxCell>
                <mxCell id="TNTDtUH9Z9aiBAnjI_58-27" value="N" style="text;html=1;align=center;verticalAlign=middle;resizable=0;points=[];autosize=1;strokeColor=none;fillColor=none;fontSize=50;fontColor=#FFFF33;" parent="TNTDtUH9Z9aiBAnjI_58-1" vertex="1">
                    <mxGeometry x="-223" y="1017" width="46" height="64" as="geometry"/>
                </mxCell>
                <mxCell id="TNTDtUH9Z9aiBAnjI_58-29" value="N" style="text;html=1;align=center;verticalAlign=middle;resizable=0;points=[];autosize=1;strokeColor=none;fillColor=none;fontSize=50;fontColor=#FFFF33;" parent="TNTDtUH9Z9aiBAnjI_58-1" vertex="1">
                    <mxGeometry x="443" y="789" width="46" height="64" as="geometry"/>
                </mxCell>
                <mxCell id="TNTDtUH9Z9aiBAnjI_58-30" value="Y" style="text;html=1;align=center;verticalAlign=middle;resizable=0;points=[];autosize=1;strokeColor=none;fillColor=none;fontSize=50;fontColor=#FFFF33;" parent="TNTDtUH9Z9aiBAnjI_58-1" vertex="1">
                    <mxGeometry x="513" y="1102" width="43" height="64" as="geometry"/>
                </mxCell>
                <mxCell id="TNTDtUH9Z9aiBAnjI_58-31" value="N" style="text;html=1;align=center;verticalAlign=middle;resizable=0;points=[];autosize=1;strokeColor=none;fillColor=none;fontSize=50;fontColor=#FFFF33;" parent="TNTDtUH9Z9aiBAnjI_58-1" vertex="1">
                    <mxGeometry x="473" y="193" width="46" height="64" as="geometry"/>
                </mxCell>
                <mxCell id="TNTDtUH9Z9aiBAnjI_58-32" value="" style="line;strokeWidth=10;html=1;fontSize=50;fontColor=#FFFF33;strokeColor=#FFFF33;" parent="TNTDtUH9Z9aiBAnjI_58-1" vertex="1">
                    <mxGeometry x="-564" y="2035" width="756" height="10" as="geometry"/>
                </mxCell>
                <mxCell id="TNTDtUH9Z9aiBAnjI_58-33" value="" style="line;strokeWidth=10;direction=south;html=1;fontSize=50;fontColor=#FFFF33;strokeColor=#FFFF33;" parent="TNTDtUH9Z9aiBAnjI_58-1" vertex="1">
                    <mxGeometry x="-574" y="80" width="10" height="1969" as="geometry"/>
                </mxCell>
                <mxCell id="TNTDtUH9Z9aiBAnjI_58-34" value="" style="line;strokeWidth=10;html=1;fontSize=50;fontColor=#FFFF33;strokeColor=#FFFF33;" parent="TNTDtUH9Z9aiBAnjI_58-1" vertex="1">
                    <mxGeometry x="-569" y="73" width="651" height="10" as="geometry"/>
                </mxCell>
            </root>
        </mxGraphModel>
    </diagram>
    <diagram id="VlgivfKoc5uIVK4iJHF7" name="第 5 页">
        <mxGraphModel dx="1614" dy="1275" grid="0" gridSize="10" guides="1" tooltips="1" connect="1" arrows="1" fold="1" page="0" pageScale="1" pageWidth="827" pageHeight="1169" math="0" shadow="0">
            <root>
                <mxCell id="eVsHqj-zp8kahwwRxCgn-0"/>
                <mxCell id="eVsHqj-zp8kahwwRxCgn-1" parent="eVsHqj-zp8kahwwRxCgn-0"/>
                <mxCell id="dhHr9xondmFKKOm_gKWm-0" value="开始" style="rounded=1;whiteSpace=wrap;html=1;fontSize=50;fontColor=#FFFF33;strokeColor=#FFFF33;strokeWidth=10;" parent="eVsHqj-zp8kahwwRxCgn-1" vertex="1">
                    <mxGeometry x="-34" y="-597" width="233" height="105" as="geometry"/>
                </mxCell>
                <mxCell id="dhHr9xondmFKKOm_gKWm-1" value="初始化电梯状态" style="rounded=0;whiteSpace=wrap;html=1;fontSize=50;fontColor=#FFFF33;strokeColor=#FFFF33;strokeWidth=10;" parent="eVsHqj-zp8kahwwRxCgn-1" vertex="1">
                    <mxGeometry x="-122" y="-269" width="448" height="164" as="geometry"/>
                </mxCell>
                <mxCell id="dhHr9xondmFKKOm_gKWm-2" value="是否有用户楼层响应" style="rhombus;whiteSpace=wrap;html=1;fontSize=50;fontColor=#FFFF33;strokeColor=#FFFF33;strokeWidth=10;" parent="eVsHqj-zp8kahwwRxCgn-1" vertex="1">
                    <mxGeometry x="-269" y="129" width="703" height="282" as="geometry"/>
                </mxCell>
                <mxCell id="dhHr9xondmFKKOm_gKWm-3" value="等待消息" style="rounded=0;whiteSpace=wrap;html=1;fontSize=50;fontColor=#FFFF33;strokeColor=#FFFF33;strokeWidth=10;" parent="eVsHqj-zp8kahwwRxCgn-1" vertex="1">
                    <mxGeometry x="844" y="222" width="398" height="150" as="geometry"/>
                </mxCell>
                <mxCell id="dhHr9xondmFKKOm_gKWm-4" value="相应楼层设置按键" style="rounded=0;whiteSpace=wrap;html=1;fontSize=50;fontColor=#FFFF33;strokeColor=#FFFF33;strokeWidth=10;" parent="eVsHqj-zp8kahwwRxCgn-1" vertex="1">
                    <mxGeometry x="-243" y="666" width="729" height="192" as="geometry"/>
                </mxCell>
                <mxCell id="dhHr9xondmFKKOm_gKWm-5" value="启用电梯调度处理响应" style="rounded=0;whiteSpace=wrap;html=1;fontSize=50;fontColor=#FFFF33;strokeColor=#FFFF33;strokeWidth=10;" parent="eVsHqj-zp8kahwwRxCgn-1" vertex="1">
                    <mxGeometry x="-258" y="1034" width="777" height="181" as="geometry"/>
                </mxCell>
                <mxCell id="dhHr9xondmFKKOm_gKWm-6" value="处理用户请求，设置乘客属性" style="rounded=0;whiteSpace=wrap;html=1;fontSize=50;fontColor=#FFFF33;strokeColor=#FFFF33;strokeWidth=10;" parent="eVsHqj-zp8kahwwRxCgn-1" vertex="1">
                    <mxGeometry x="-366.5" y="1427" width="976" height="223" as="geometry"/>
                </mxCell>
                <mxCell id="dhHr9xondmFKKOm_gKWm-7" value="判断乘客属性是否符合规定" style="rhombus;whiteSpace=wrap;html=1;fontSize=50;fontColor=#FFFF33;strokeColor=#FFFF33;strokeWidth=10;" parent="eVsHqj-zp8kahwwRxCgn-1" vertex="1">
                    <mxGeometry x="-437" y="1906" width="1051" height="293" as="geometry"/>
                </mxCell>
                <mxCell id="dhHr9xondmFKKOm_gKWm-8" value="结束" style="rounded=1;whiteSpace=wrap;html=1;fontSize=50;fontColor=#FFFF33;strokeColor=#FFFF33;strokeWidth=10;" parent="eVsHqj-zp8kahwwRxCgn-1" vertex="1">
                    <mxGeometry x="-55" y="2795" width="266" height="122" as="geometry"/>
                </mxCell>
                <mxCell id="dhHr9xondmFKKOm_gKWm-9" value="执行调度，接收下一个乘客请求" style="rounded=0;whiteSpace=wrap;html=1;fontSize=50;fontColor=#FFFF33;strokeColor=#FFFF33;strokeWidth=10;" parent="eVsHqj-zp8kahwwRxCgn-1" vertex="1">
                    <mxGeometry x="-321" y="2422" width="833" height="198" as="geometry"/>
                </mxCell>
                <mxCell id="dhHr9xondmFKKOm_gKWm-12" value="" style="line;strokeWidth=10;direction=south;html=1;fontSize=50;fontColor=#FFFF33;strokeColor=#FFFF33;" parent="eVsHqj-zp8kahwwRxCgn-1" vertex="1">
                    <mxGeometry x="77.5" y="-487" width="10" height="219" as="geometry"/>
                </mxCell>
                <mxCell id="dhHr9xondmFKKOm_gKWm-13" value="" style="line;strokeWidth=10;direction=south;html=1;fontSize=50;fontColor=#FFFF33;strokeColor=#FFFF33;" parent="eVsHqj-zp8kahwwRxCgn-1" vertex="1">
                    <mxGeometry x="77.5" y="-105" width="10" height="227" as="geometry"/>
                </mxCell>
                <mxCell id="dhHr9xondmFKKOm_gKWm-14" value="" style="line;strokeWidth=10;html=1;fontSize=50;fontColor=#FFFF33;strokeColor=#FFFF33;" parent="eVsHqj-zp8kahwwRxCgn-1" vertex="1">
                    <mxGeometry x="431" y="265" width="413" height="10" as="geometry"/>
                </mxCell>
                <mxCell id="dhHr9xondmFKKOm_gKWm-15" value="" style="line;strokeWidth=10;direction=south;html=1;fontSize=50;fontColor=#FFFF33;strokeColor=#FFFF33;" parent="eVsHqj-zp8kahwwRxCgn-1" vertex="1">
                    <mxGeometry x="77.5" y="414" width="10" height="250" as="geometry"/>
                </mxCell>
                <mxCell id="dhHr9xondmFKKOm_gKWm-16" value="" style="line;strokeWidth=10;direction=south;html=1;fontSize=50;fontColor=#FFFF33;strokeColor=#FFFF33;" parent="eVsHqj-zp8kahwwRxCgn-1" vertex="1">
                    <mxGeometry x="77.5" y="863" width="10" height="174" as="geometry"/>
                </mxCell>
                <mxCell id="dhHr9xondmFKKOm_gKWm-17" value="" style="line;strokeWidth=10;direction=south;html=1;fontSize=50;fontColor=#FFFF33;strokeColor=#FFFF33;" parent="eVsHqj-zp8kahwwRxCgn-1" vertex="1">
                    <mxGeometry x="77.5" y="1206" width="10" height="222" as="geometry"/>
                </mxCell>
                <mxCell id="dhHr9xondmFKKOm_gKWm-18" value="" style="line;strokeWidth=10;direction=south;html=1;fontSize=50;fontColor=#FFFF33;strokeColor=#FFFF33;" parent="eVsHqj-zp8kahwwRxCgn-1" vertex="1">
                    <mxGeometry x="77.5" y="1646" width="10" height="247" as="geometry"/>
                </mxCell>
                <mxCell id="dhHr9xondmFKKOm_gKWm-19" value="" style="line;strokeWidth=10;direction=south;html=1;fontSize=50;fontColor=#FFFF33;strokeColor=#FFFF33;" parent="eVsHqj-zp8kahwwRxCgn-1" vertex="1">
                    <mxGeometry x="77.5" y="2208" width="10" height="219" as="geometry"/>
                </mxCell>
                <mxCell id="dhHr9xondmFKKOm_gKWm-20" value="" style="line;strokeWidth=10;direction=south;html=1;fontSize=50;fontColor=#FFFF33;strokeColor=#FFFF33;" parent="eVsHqj-zp8kahwwRxCgn-1" vertex="1">
                    <mxGeometry x="73" y="2620" width="10" height="160" as="geometry"/>
                </mxCell>
                <mxCell id="dhHr9xondmFKKOm_gKWm-21" value="是" style="text;html=1;align=center;verticalAlign=middle;resizable=0;points=[];autosize=1;strokeColor=none;fillColor=none;fontSize=50;fontColor=#FFFF33;" parent="eVsHqj-zp8kahwwRxCgn-1" vertex="1">
                    <mxGeometry x="152" y="2277" width="60" height="64" as="geometry"/>
                </mxCell>
                <mxCell id="dhHr9xondmFKKOm_gKWm-22" value="否" style="text;html=1;align=center;verticalAlign=middle;resizable=0;points=[];autosize=1;strokeColor=none;fillColor=none;fontSize=50;fontColor=#FFFF33;" parent="eVsHqj-zp8kahwwRxCgn-1" vertex="1">
                    <mxGeometry x="608" y="141" width="60" height="64" as="geometry"/>
                </mxCell>
                <mxCell id="dhHr9xondmFKKOm_gKWm-23" value="是" style="text;html=1;align=center;verticalAlign=middle;resizable=0;points=[];autosize=1;strokeColor=none;fillColor=none;fontSize=50;fontColor=#FFFF33;" parent="eVsHqj-zp8kahwwRxCgn-1" vertex="1">
                    <mxGeometry x="132" y="493" width="60" height="64" as="geometry"/>
                </mxCell>
                <mxCell id="dhHr9xondmFKKOm_gKWm-24" value="" style="line;strokeWidth=10;html=1;fontSize=50;fontColor=#FFFF33;strokeColor=#FFFF33;" parent="eVsHqj-zp8kahwwRxCgn-1" vertex="1">
                    <mxGeometry x="-729" y="2050" width="284" height="10" as="geometry"/>
                </mxCell>
                <mxCell id="dhHr9xondmFKKOm_gKWm-25" value="" style="line;strokeWidth=10;direction=south;html=1;fontSize=50;fontColor=#FFFF33;strokeColor=#FFFF33;" parent="eVsHqj-zp8kahwwRxCgn-1" vertex="1">
                    <mxGeometry x="-729" y="947" width="10" height="1103" as="geometry"/>
                </mxCell>
                <mxCell id="dhHr9xondmFKKOm_gKWm-26" value="" style="line;strokeWidth=10;html=1;fontSize=50;fontColor=#FFFF33;strokeColor=#FFFF33;" parent="eVsHqj-zp8kahwwRxCgn-1" vertex="1">
                    <mxGeometry x="-726" y="945" width="814" height="10" as="geometry"/>
                </mxCell>
                <mxCell id="dhHr9xondmFKKOm_gKWm-27" value="否" style="text;html=1;align=center;verticalAlign=middle;resizable=0;points=[];autosize=1;strokeColor=none;fillColor=none;fontSize=50;fontColor=#FFFF33;" parent="eVsHqj-zp8kahwwRxCgn-1" vertex="1">
                    <mxGeometry x="-624" y="1937" width="60" height="64" as="geometry"/>
                </mxCell>
            </root>
        </mxGraphModel>
    </diagram>
    <diagram id="CWbSKZ_kHphD2JPoLZE2" name="第 6 页">
        <mxGraphModel dx="814" dy="875" grid="0" gridSize="10" guides="1" tooltips="1" connect="1" arrows="1" fold="1" page="0" pageScale="1" pageWidth="827" pageHeight="1169" math="0" shadow="0">
            <root>
                <mxCell id="MGAonMQSUXYCL1U3r_h3-0"/>
                <mxCell id="MGAonMQSUXYCL1U3r_h3-1" parent="MGAonMQSUXYCL1U3r_h3-0"/>
                <mxCell id="MGAonMQSUXYCL1U3r_h3-2" value="&lt;font color=&quot;#ffff33&quot; style=&quot;font-size: 36px&quot;&gt;开始&lt;/font&gt;" style="rounded=1;whiteSpace=wrap;html=1;strokeColor=#FFFF33;strokeWidth=10;" parent="MGAonMQSUXYCL1U3r_h3-1" vertex="1">
                    <mxGeometry x="247" y="-202" width="203" height="60" as="geometry"/>
                </mxCell>
                <mxCell id="MGAonMQSUXYCL1U3r_h3-3" value="从cookie中获取&lt;span lang=&quot;EN-US&quot;&gt;&lt;font style=&quot;font-size: 36px&quot;&gt;csrfKey&lt;/font&gt;&lt;/span&gt;" style="rounded=1;whiteSpace=wrap;html=1;fontSize=36;fontColor=#FFFF33;strokeColor=#FFFF33;strokeWidth=10;gradientColor=none;" parent="MGAonMQSUXYCL1U3r_h3-1" vertex="1">
                    <mxGeometry x="111" y="347" width="510" height="103" as="geometry"/>
                </mxCell>
                <mxCell id="MGAonMQSUXYCL1U3r_h3-4" value="是否检测到cookie值" style="rhombus;whiteSpace=wrap;html=1;fontSize=36;fontColor=#FFFF33;strokeColor=#FFFF33;strokeWidth=10;gradientColor=none;" parent="MGAonMQSUXYCL1U3r_h3-1" vertex="1">
                    <mxGeometry x="53" y="-10" width="591" height="181" as="geometry"/>
                </mxCell>
                <mxCell id="MGAonMQSUXYCL1U3r_h3-5" value="登录慕课网以获取cookie值，并将其手动输入" style="rounded=1;whiteSpace=wrap;html=1;fontSize=36;fontColor=#FFFF33;strokeColor=#FFFF33;strokeWidth=10;gradientColor=none;" parent="MGAonMQSUXYCL1U3r_h3-1" vertex="1">
                    <mxGeometry x="896" y="33" width="527" height="135" as="geometry"/>
                </mxCell>
                <mxCell id="MGAonMQSUXYCL1U3r_h3-6" value="输入课程的tid" style="rounded=1;whiteSpace=wrap;html=1;fontSize=36;fontColor=#FFFF33;strokeColor=#FFFF33;strokeWidth=10;gradientColor=none;" parent="MGAonMQSUXYCL1U3r_h3-1" vertex="1">
                    <mxGeometry x="168" y="608" width="406" height="119" as="geometry"/>
                </mxCell>
                <mxCell id="MGAonMQSUXYCL1U3r_h3-7" value="查找数据包中m3u8文件的videoUrl" style="rounded=1;whiteSpace=wrap;html=1;fontSize=36;fontColor=#FFFF33;strokeColor=#FFFF33;strokeWidth=10;gradientColor=none;" parent="MGAonMQSUXYCL1U3r_h3-1" vertex="1">
                    <mxGeometry x="46" y="866" width="665" height="121" as="geometry"/>
                </mxCell>
                <mxCell id="MGAonMQSUXYCL1U3r_h3-8" value="m3u8文件转换成mp4文件" style="rounded=1;whiteSpace=wrap;html=1;fontSize=36;fontColor=#FFFF33;strokeColor=#FFFF33;strokeWidth=10;gradientColor=none;" parent="MGAonMQSUXYCL1U3r_h3-1" vertex="1">
                    <mxGeometry x="124" y="1126" width="473" height="110" as="geometry"/>
                </mxCell>
                <mxCell id="MGAonMQSUXYCL1U3r_h3-9" value="新建一个文件夹，存放下载好的mp4文件" style="rounded=1;whiteSpace=wrap;html=1;fontSize=36;fontColor=#FFFF33;strokeColor=#FFFF33;strokeWidth=10;gradientColor=none;" parent="MGAonMQSUXYCL1U3r_h3-1" vertex="1">
                    <mxGeometry x="43" y="1351" width="691" height="125" as="geometry"/>
                </mxCell>
                <mxCell id="MGAonMQSUXYCL1U3r_h3-10" value="结束" style="rounded=1;whiteSpace=wrap;html=1;fontSize=36;fontColor=#FFFF33;strokeColor=#FFFF33;strokeWidth=10;gradientColor=none;" parent="MGAonMQSUXYCL1U3r_h3-1" vertex="1">
                    <mxGeometry x="257" y="1607" width="198" height="92" as="geometry"/>
                </mxCell>
                <mxCell id="MGAonMQSUXYCL1U3r_h3-11" value="" style="line;strokeWidth=10;direction=south;html=1;fontSize=36;fontColor=#FFFF33;gradientColor=none;strokeColor=#FFFF33;" parent="MGAonMQSUXYCL1U3r_h3-1" vertex="1">
                    <mxGeometry x="343.5" y="-145" width="10" height="132" as="geometry"/>
                </mxCell>
                <mxCell id="MGAonMQSUXYCL1U3r_h3-12" value="" style="line;strokeWidth=10;html=1;fontSize=36;fontColor=#FFFF33;gradientColor=none;strokeColor=#FFFF33;" parent="MGAonMQSUXYCL1U3r_h3-1" vertex="1">
                    <mxGeometry x="641" y="75.5" width="257" height="10" as="geometry"/>
                </mxCell>
                <mxCell id="MGAonMQSUXYCL1U3r_h3-13" value="" style="line;strokeWidth=10;direction=south;html=1;fontSize=36;fontColor=#FFFF33;gradientColor=none;strokeColor=#FFFF33;" parent="MGAonMQSUXYCL1U3r_h3-1" vertex="1">
                    <mxGeometry x="1110" y="-87" width="10" height="119" as="geometry"/>
                </mxCell>
                <mxCell id="MGAonMQSUXYCL1U3r_h3-14" value="" style="line;strokeWidth=10;html=1;fontSize=36;fontColor=#FFFF33;gradientColor=none;strokeColor=#FFFF33;" parent="MGAonMQSUXYCL1U3r_h3-1" vertex="1">
                    <mxGeometry x="353.5" y="-87" width="763.5" height="10" as="geometry"/>
                </mxCell>
                <mxCell id="MGAonMQSUXYCL1U3r_h3-15" value="否" style="text;html=1;align=center;verticalAlign=middle;resizable=0;points=[];autosize=1;strokeColor=none;fillColor=none;fontSize=36;fontColor=#FFFF33;" parent="MGAonMQSUXYCL1U3r_h3-1" vertex="1">
                    <mxGeometry x="704" y="-2" width="46" height="47" as="geometry"/>
                </mxCell>
                <mxCell id="MGAonMQSUXYCL1U3r_h3-16" value="" style="line;strokeWidth=10;direction=south;html=1;fontSize=36;fontColor=#FFFF33;gradientColor=none;strokeColor=#FFFF33;" parent="MGAonMQSUXYCL1U3r_h3-1" vertex="1">
                    <mxGeometry x="343.5" y="171" width="10" height="178" as="geometry"/>
                </mxCell>
                <mxCell id="MGAonMQSUXYCL1U3r_h3-17" value="" style="line;strokeWidth=10;direction=south;html=1;fontSize=36;fontColor=#FFFF33;gradientColor=none;strokeColor=#FFFF33;" parent="MGAonMQSUXYCL1U3r_h3-1" vertex="1">
                    <mxGeometry x="343.5" y="444" width="10" height="160" as="geometry"/>
                </mxCell>
                <mxCell id="MGAonMQSUXYCL1U3r_h3-18" value="" style="line;strokeWidth=10;direction=south;html=1;fontSize=36;fontColor=#FFFF33;gradientColor=none;strokeColor=#FFFF33;" parent="MGAonMQSUXYCL1U3r_h3-1" vertex="1">
                    <mxGeometry x="343.5" y="724" width="10" height="145" as="geometry"/>
                </mxCell>
                <mxCell id="MGAonMQSUXYCL1U3r_h3-19" value="" style="line;strokeWidth=10;direction=south;html=1;fontSize=36;fontColor=#FFFF33;gradientColor=none;strokeColor=#FFFF33;" parent="MGAonMQSUXYCL1U3r_h3-1" vertex="1">
                    <mxGeometry x="343.5" y="982" width="10" height="142" as="geometry"/>
                </mxCell>
                <mxCell id="MGAonMQSUXYCL1U3r_h3-20" value="" style="line;strokeWidth=10;direction=south;html=1;fontSize=36;fontColor=#FFFF33;gradientColor=none;strokeColor=#FFFF33;" parent="MGAonMQSUXYCL1U3r_h3-1" vertex="1">
                    <mxGeometry x="343.5" y="1236" width="10" height="115" as="geometry"/>
                </mxCell>
                <mxCell id="MGAonMQSUXYCL1U3r_h3-22" value="" style="line;strokeWidth=10;direction=south;html=1;fontSize=36;fontColor=#FFFF33;gradientColor=none;strokeColor=#FFFF33;" parent="MGAonMQSUXYCL1U3r_h3-1" vertex="1">
                    <mxGeometry x="343.5" y="1470" width="10" height="136" as="geometry"/>
                </mxCell>
                <mxCell id="MGAonMQSUXYCL1U3r_h3-23" value="是" style="text;html=1;align=center;verticalAlign=middle;resizable=0;points=[];autosize=1;strokeColor=none;fillColor=none;fontSize=36;fontColor=#FFFF33;" parent="MGAonMQSUXYCL1U3r_h3-1" vertex="1">
                    <mxGeometry x="376" y="218" width="46" height="47" as="geometry"/>
                </mxCell>
            </root>
        </mxGraphModel>
    </diagram>
</mxfile>